<?xml version="1.0" standalone="no"?>
<!DOCTYPE svg PUBLIC "-//W3C//DTD SVG 20010904//EN"
 "http://www.w3.org/TR/2001/REC-SVG-20010904/DTD/svg10.dtd">
<svg version="1.0" xmlns="http://www.w3.org/2000/svg"
 width="300.000000pt" height="289.000000pt" viewBox="0 0 300.000000 289.000000"
 preserveAspectRatio="xMidYMid meet">

<g transform="translate(0.000000,289.000000) scale(0.100000,-0.100000)"
fill="#000000" stroke="none">
<path d="M1350 2879 c-593 -57 -1107 -461 -1278 -1006 -49 -155 -65 -259 -65
-428 0 -98 6 -181 17 -240 74 -399 300 -733 649 -959 495 -322 1159 -322 1654
0 349 226 575 560 649 959 11 59 17 142 17 240 0 169 -16 273 -65 428 -136
431 -498 790 -946 936 -117 39 -211 58 -347 71 -122 11 -161 11 -285 -1z m448
-68 c279 -60 516 -183 716 -372 128 -121 213 -236 291 -394 156 -315 186 -643
90 -980 -34 -121 -140 -331 -219 -436 -213 -283 -537 -482 -901 -556 -126 -25
-424 -25 -550 0 -364 74 -688 273 -901 556 -79 105 -185 315 -219 436 -96 337
-66 665 90 980 78 158 163 273 291 394 232 220 493 341 849 395 76 11 372 -3
463 -23z"/>
<path d="M1350 2789 c-623 -64 -1134 -544 -1224 -1151 -101 -679 336 -1321
1019 -1498 605 -157 1246 104 1559 633 348 588 192 1334 -363 1746 -206 152
-448 245 -710 271 -116 11 -159 11 -281 -1z m440 -113 c535 -123 911 -513
1001 -1034 17 -104 27 -302 14 -302 -3 0 -36 15 -73 34 l-67 33 -65 -18 c-36
-11 -68 -19 -71 -19 -3 0 -9 51 -12 112 -15 263 -109 473 -289 644 -124 117
-283 204 -459 249 -63 17 -65 18 -90 71 -17 36 -22 54 -13 54 7 0 15 -13 19
-30 4 -17 13 -30 22 -30 10 0 14 6 10 18 -57 201 -63 207 -125 110 -61 -98
-65 -108 -47 -108 8 0 21 11 27 25 11 24 32 33 41 18 3 -5 2 -27 -2 -50 l-6
-43 -135 -4 c-527 -18 -884 -355 -951 -897 l-12 -96 -69 18 -69 17 -75 -34
c-41 -19 -77 -34 -80 -34 -10 0 -3 184 11 262 45 258 168 492 359 684 208 209
458 328 791 378 78 12 313 -4 415 -28z m-124 -154 c-3 -2 -18 -1 -35 3 l-31 7
22 40 23 40 12 -43 c7 -23 11 -44 9 -47z m-330 -346 c-187 -114 -317 -224
-387 -330 l-41 -61 6 44 c4 24 13 56 22 72 8 16 12 29 10 29 -10 0 -88 -122
-117 -183 -33 -70 -38 -57 -10 24 46 134 116 233 213 302 90 63 90 63 82 33
-3 -14 -2 -26 2 -26 5 0 58 27 119 59 60 33 112 57 115 54 3 -3 -3 -10 -14
-17z m92 -40 c9 3 6 -1 -8 -9 -30 -18 -31 -18 -23 13 5 19 8 21 11 8 2 -11 10
-15 20 -12z m103 -49 c-14 -17 -4 -28 17 -20 10 3 2 -9 -15 -28 -32 -34 -46
-62 -20 -41 7 6 34 20 60 31 l48 21 -36 -44 c-20 -24 -74 -74 -121 -111 -46
-37 -83 -69 -81 -71 2 -3 23 2 45 10 l42 15 -49 -72 c-26 -40 -61 -93 -76
-119 -15 -27 -29 -48 -31 -48 -7 0 9 66 27 108 20 47 15 50 -41 22 -22 -11
-40 -17 -40 -12 0 5 39 50 86 101 47 51 83 95 80 98 -2 3 -35 -13 -72 -36 -38
-22 -70 -38 -72 -36 -9 8 53 72 152 157 99 86 120 102 97 75z m128 -241 c8 -9
8 -16 2 -20 -5 -4 -12 -2 -16 4 -4 6 -11 8 -17 4 -5 -4 2 -18 17 -34 33 -35
30 -64 -8 -68 -27 -3 -48 21 -32 36 4 4 10 1 12 -5 5 -14 33 -18 33 -5 0 5
-11 19 -25 32 -28 26 -31 40 -13 58 16 16 33 15 47 -2z m75 -1 c13 -35 18
-115 7 -115 -6 0 -11 7 -11 15 0 8 -5 15 -10 15 -6 0 -13 -7 -16 -15 -8 -19
-24 -20 -24 0 0 7 5 37 11 65 10 49 31 66 43 35z m69 -22 l16 -38 0 32 c1 17
6 35 11 38 6 4 10 -18 10 -59 0 -72 -12 -84 -34 -33 l-14 32 -1 -32 c-2 -63
-21 -33 -21 32 0 36 4 65 9 65 5 0 16 -17 24 -37z m155 -32 c2 -48 0 -62 -10
-59 -8 3 -14 25 -16 56 -2 37 -7 52 -18 52 -10 0 -14 -14 -14 -55 0 -30 -4
-55 -10 -55 -5 0 -10 23 -10 50 0 36 -4 52 -15 56 -30 12 -2 25 43 21 l47 -4
3 -62z m70 63 c21 -6 23 -11 20 -63 -3 -55 -3 -56 -35 -59 l-33 -3 0 59 c0 73
3 78 48 66z m101 -58 c14 -57 8 -86 -10 -53 -12 21 -29 22 -29 2 0 -8 -7 -15
-16 -15 -10 0 -14 6 -10 18 3 9 8 35 12 57 4 22 9 44 11 48 12 20 29 -4 42
-57z m82 54 c14 -8 19 -21 19 -54 0 -49 -17 -69 -52 -64 -20 3 -23 10 -26 52
-5 75 10 92 59 66z m94 0 c3 -5 -3 -10 -14 -10 -26 0 -27 -18 -3 -36 16 -13
16 -13 0 -14 -26 0 -24 -40 2 -40 11 0 20 -4 20 -10 0 -5 -13 -10 -30 -10
l-30 0 0 65 c0 62 1 65 24 65 14 0 28 -4 31 -10z m-369 -253 c11 -58 4 -82
-15 -50 -10 17 -12 17 -26 -1 -23 -30 -27 -14 -14 53 16 81 38 80 55 -2z m89
4 c0 -57 -17 -80 -49 -68 -12 5 -16 20 -16 60 0 62 5 69 40 65 23 -3 25 -7 25
-57z m-892 -85 c-9 -108 30 -186 92 -186 61 0 80 54 60 170 l-7 45 31 -29 c91
-86 112 -263 36 -298 -23 -10 -33 -8 -71 13 -45 24 -46 24 -60 5 -8 -11 -14
-23 -14 -27 0 -19 35 -39 69 -39 40 0 63 -18 75 -57 7 -22 5 -23 -46 -23 -47
0 -57 4 -80 30 -35 40 -59 38 -106 -9 -44 -45 -104 -67 -155 -57 -46 9 -116
71 -152 137 -26 48 -30 65 -33 162 -4 114 6 137 28 65 17 -60 45 -111 81 -153
26 -30 37 -35 73 -35 30 0 48 6 61 20 28 31 15 118 -32 210 l-38 75 55 1 c35
1 69 8 95 22 22 12 41 21 41 22 1 0 -1 -29 -3 -64z m625 -75 c3 -9 -2 -11 -17
-6 -28 9 -27 -6 4 -35 30 -28 32 -46 5 -60 -14 -8 -26 -8 -40 0 -24 13 -26 30
-5 30 8 0 15 -4 15 -10 0 -5 5 -10 10 -10 18 0 11 23 -17 52 -22 23 -24 30
-13 43 15 19 51 16 58 -4z m82 9 c0 -5 -7 -10 -15 -10 -18 0 -20 -26 -2 -34
10 -5 10 -7 0 -12 -18 -8 -16 -34 2 -34 8 0 15 -4 15 -10 0 -5 -13 -10 -30
-10 l-30 0 0 60 0 60 30 0 c17 0 30 -4 30 -10z m55 -22 l14 -33 1 33 c0 22 5
32 15 32 12 0 15 -13 15 -60 0 -47 -3 -60 -15 -60 -9 0 -21 12 -27 28 l-12 27
-4 -27 c-6 -51 -22 -29 -22 32 0 67 13 78 35 28z m85 7 c0 -14 5 -25 10 -25 6
0 10 11 10 25 0 16 6 25 15 25 12 0 15 -13 15 -60 0 -47 -3 -60 -15 -60 -9 0
-15 9 -15 25 0 14 -4 25 -10 25 -5 0 -10 -11 -10 -25 0 -14 -4 -25 -10 -25 -6
0 -10 27 -10 60 0 33 4 60 10 60 6 0 10 -11 10 -25z m135 -34 c0 -39 -4 -57
-17 -64 -28 -18 -48 9 -48 63 0 54 5 62 40 58 23 -3 25 -7 25 -57z m91 -3 c1
-56 -13 -78 -23 -38 -3 11 -10 20 -15 20 -6 0 -8 -9 -5 -20 3 -13 0 -20 -9
-20 -10 0 -14 15 -14 61 l0 60 33 -3 c32 -3 32 -3 33 -60z m-1686 -92 l12 -74
-41 -52 c-50 -63 -51 -93 -6 -98 20 -2 38 4 53 18 12 12 26 19 31 16 10 -7 35
-65 30 -70 -9 -7 -240 -88 -242 -85 -1 2 -15 30 -30 63 l-28 58 23 16 c37 26
70 65 85 100 12 30 12 37 -2 58 -19 30 -58 31 -104 3 -18 -11 -36 -18 -38 -15
-3 3 -8 25 -10 51 l-6 45 64 1 c35 0 91 9 124 19 33 10 63 18 66 19 3 0 12
-32 19 -73z m2150 4 c41 -11 94 -61 109 -103 16 -41 13 -122 -5 -165 -19 -47
-68 -98 -118 -124 -48 -25 -124 -21 -164 9 -79 58 -95 184 -37 278 34 55 65
80 121 100 48 17 50 17 94 5z m-890 -126 c135 -20 251 -42 259 -49 11 -10 -1
-23 -65 -71 -44 -32 -129 -94 -189 -139 -131 -97 -145 -105 -183 -105 -16 0
-151 29 -300 65 -150 36 -277 65 -282 65 -5 0 -14 -9 -21 -21 -9 -17 -6 -29
20 -71 29 -46 32 -68 11 -68 -16 0 -70 93 -70 121 0 45 38 75 157 123 96 40
122 46 183 46 64 0 86 9 60 25 -21 13 -7 26 78 69 48 25 89 45 92 45 2 1 115
-15 250 -35z m240 -143 c0 -26 -22 -45 -206 -185 -158 -119 -213 -156 -236
-156 -25 0 -147 28 -311 71 -21 5 -35 13 -33 18 3 4 72 -10 153 -31 81 -21
155 -37 163 -35 8 1 -52 20 -135 41 -82 21 -157 42 -165 47 -31 17 21 9 160
-26 141 -35 178 -42 150 -26 -8 5 -87 25 -175 46 -163 38 -172 41 -163 50 4 5
233 -48 311 -71 9 -3 17 -1 17 5 0 6 -6 11 -12 11 -34 0 -278 64 -271 71 4 4
78 -10 163 -31 85 -22 167 -40 182 -40 19 0 80 39 210 134 101 74 186 135 191
135 4 1 7 -12 7 -28z m40 -46 c0 -13 -367 -307 -417 -333 -39 -21 -115 -12
-281 32 -90 24 -166 47 -170 50 -3 4 -1 11 6 18 8 8 51 0 170 -31 238 -62 220
-65 420 86 92 69 185 141 207 159 43 36 65 43 65 19z m498 -151 l53 -25 -28
-32 c-15 -18 -35 -42 -43 -54 -14 -19 -19 -20 -86 -10 -55 8 -79 7 -114 -4
-62 -19 -63 -42 -4 -76 90 -53 90 -53 44 -91 l-40 -33 -28 33 c-38 46 -81 86
-124 115 -45 31 -47 41 -10 75 59 55 102 81 115 70 20 -16 98 -34 123 -28 50
13 15 86 -48 101 -16 4 -28 9 -28 11 0 1 9 19 21 38 l20 35 62 -50 c34 -27 86
-61 115 -75z m-1880 62 c5 -12 30 -41 55 -62 l44 -39 -39 -56 c-22 -31 -48
-84 -57 -117 l-16 -60 -48 31 c-45 29 -47 33 -47 76 0 60 -28 105 -75 121 -20
6 -43 9 -51 6 -10 -4 -18 4 -25 22 -6 15 -17 34 -25 43 -14 15 -8 17 69 24 47
3 109 12 138 20 30 7 57 13 60 14 3 1 11 -10 17 -23z m506 -66 c38 -14 32 -38
-24 -92 -52 -50 -70 -58 -70 -33 0 9 -9 15 -23 15 -13 0 -31 6 -42 13 -17 13
-15 16 27 45 25 17 48 38 51 47 7 17 44 20 81 5z m-249 -160 c42 -27 100 -60
129 -74 46 -22 53 -29 49 -49 -4 -22 -11 -25 -78 -30 -84 -7 -120 -19 -128
-42 -8 -20 43 -53 96 -61 38 -7 38 -7 19 -28 -10 -11 -22 -29 -26 -39 -5 -17
-14 -14 -91 27 -95 50 -205 131 -205 150 0 27 25 36 108 36 91 0 122 10 122
40 0 24 -50 57 -98 66 l-33 6 22 24 c12 13 26 24 30 24 5 0 43 -22 84 -50z
m1180 -20 c21 -24 24 -21 -40 -53 -59 -29 -90 -60 -82 -82 10 -24 34 -18 78
22 42 38 42 38 69 -9 8 -13 4 -18 -22 -27 -36 -13 -78 -48 -78 -67 0 -21 29
-37 55 -30 15 4 51 31 82 61 31 30 60 52 65 49 4 -3 15 -18 22 -33 l15 -28
-62 -36 c-93 -54 -229 -117 -238 -111 -5 3 -9 12 -9 20 0 23 -58 144 -86 181
-14 19 -24 36 -23 37 2 2 36 20 74 39 39 20 88 47 110 61 49 31 48 31 70 6z
m-850 -135 c22 -8 63 -14 91 -15 l51 0 7 -68 c4 -44 18 -92 36 -131 17 -35 30
-64 30 -64 0 -1 -26 0 -59 3 -50 4 -62 9 -85 37 -47 56 -118 65 -166 21 -22
-20 -23 -20 -81 -3 l-59 18 68 71 c37 39 76 88 87 109 22 42 24 42 80 22z
m534 -6 c50 -18 65 -67 37 -119 -13 -23 -12 -27 25 -58 21 -19 39 -37 39 -41
0 -5 -25 -15 -56 -24 l-57 -16 -20 26 c-20 25 -73 53 -102 53 -11 0 -15 -12
-15 -50 l0 -50 -55 0 -55 0 0 53 c0 30 -3 88 -6 130 l-7 75 44 6 c24 3 73 10
109 15 36 4 70 9 76 10 6 0 25 -4 43 -10z"/>
<path d="M1197 2636 c-37 -7 -70 -15 -73 -19 -11 -11 19 -179 32 -184 20 -7
153 17 160 29 7 11 -99 4 -130 -8 -9 -4 -15 6 -19 28 -2 18 -4 34 -2 36 1 1
30 7 64 13 33 6 61 15 61 20 0 11 -21 11 -80 -1 -48 -9 -60 -2 -60 36 0 18 8
22 62 30 34 5 63 15 66 22 2 6 0 11 -5 11 -4 -1 -38 -7 -76 -13z"/>
<path d="M1448 2568 c-3 -82 -3 -83 -30 -86 -22 -3 -29 2 -34 22 -4 16 -13 26
-24 26 -14 0 -17 -5 -13 -22 10 -38 24 -48 69 -48 60 0 74 23 74 117 0 66 -2
73 -20 73 -17 0 -19 -8 -22 -82z"/>
<path d="M903 2520 c-35 -16 -63 -33 -63 -38 0 -16 72 -162 79 -162 17 0 19
14 6 41 -21 39 -19 45 16 59 27 12 36 11 76 -9 28 -13 53 -19 66 -15 19 6 18
8 -14 25 -19 10 -42 18 -51 19 -22 0 -23 13 -3 30 19 16 19 44 -1 64 -21 22
-39 20 -111 -14z m92 -25 c0 -18 -64 -64 -91 -65 -9 0 -39 50 -32 54 75 40
123 44 123 11z"/>
<path d="M2005 2450 c-25 -39 -45 -74 -45 -78 1 -13 110 -73 145 -79 29 -5 39
-1 65 25 42 43 41 87 -2 128 -31 29 -99 74 -111 74 -3 0 -26 -32 -52 -70z
m143 -13 c12 -11 22 -32 22 -46 0 -32 -37 -71 -68 -71 -26 0 -102 38 -102 52
0 4 16 33 36 63 l35 56 27 -17 c15 -9 37 -26 50 -37z"/>
<path d="M672 2330 c-72 -52 -92 -121 -47 -165 29 -30 56 -31 110 -6 40 18
115 91 115 112 0 6 -8 21 -18 34 l-18 23 -42 -31 c-23 -18 -41 -38 -42 -45 0
-8 13 -3 33 12 40 31 43 31 51 9 10 -24 -59 -91 -101 -99 -71 -13 -108 51 -62
110 26 34 75 59 98 51 12 -3 21 0 25 10 10 28 -56 18 -102 -15z"/>
<path d="M2251 2304 c-56 -47 -30 -133 53 -173 48 -24 68 -26 99 -9 33 17 46
39 47 75 0 56 -86 133 -149 133 -11 0 -33 -12 -50 -26z m119 -19 c50 -26 65
-79 34 -123 -38 -54 -154 -4 -154 67 0 61 58 88 120 56z"/>
<path d="M501 2167 c-9 -11 3 -26 58 -75 54 -48 71 -59 80 -49 8 10 -1 24 -37
58 -82 77 -88 81 -101 66z"/>
<path d="M1711 1794 c0 -11 3 -14 6 -6 3 7 2 16 -1 19 -3 4 -6 -2 -5 -13z"/>
<path d="M2010 1795 c0 -28 4 -44 10 -40 6 3 10 21 10 40 0 19 -4 37 -10 40
-6 4 -10 -12 -10 -40z"/>
<path d="M2101 1794 c0 -11 3 -14 6 -6 3 7 2 16 -1 19 -3 4 -6 -2 -5 -13z"/>
<path d="M2180 1796 c0 -25 5 -46 10 -46 6 0 10 18 10 39 0 22 -4 43 -10 46
-6 4 -10 -12 -10 -39z"/>
<path d="M1901 1594 c0 -11 3 -14 6 -6 3 7 2 16 -1 19 -3 4 -6 -2 -5 -13z"/>
<path d="M1980 1595 c0 -25 5 -45 10 -45 6 0 10 20 10 45 0 25 -4 45 -10 45
-5 0 -10 -20 -10 -45z"/>
<path d="M2072 1399 c2 -24 8 -43 13 -41 15 3 12 75 -3 80 -10 3 -12 -7 -10
-39z"/>
<path d="M2160 1426 c0 -9 7 -16 16 -16 17 0 14 22 -4 28 -7 2 -12 -3 -12 -12z"/>
<path d="M2565 1183 c-34 -8 -65 -44 -65 -75 0 -57 76 -98 154 -84 96 18 87
128 -13 156 -38 10 -44 11 -76 3z"/>
<path d="M580 831 c-13 -25 -4 -48 21 -56 26 -8 49 11 49 40 0 37 -52 49 -70
16z"/>
<path d="M1088 796 c-21 -18 -38 -36 -38 -40 0 -12 48 -6 53 7 2 6 8 8 13 4 5
-4 2 -12 -6 -17 -8 -5 -11 -12 -8 -16 10 -10 66 34 73 57 4 12 2 26 -4 32 -8
8 -11 8 -11 -2 0 -17 -29 -45 -38 -36 -4 4 -1 10 6 12 13 5 17 33 5 33 -5 -1
-25 -16 -45 -34z"/>
<path d="M1243 453 c-19 -7 -16 -50 3 -61 23 -13 52 -3 59 20 11 34 -23 57
-62 41z"/>
<path d="M1640 441 c0 -37 10 -48 40 -43 66 9 66 62 0 62 -33 0 -40 -3 -40
-19z"/>
</g>
</svg>
